<svg version="1.1" id="Слой_1" xmlns="http://www.w3.org/2000/svg" x="0px" y="0px" viewBox="0 0 40 40" style="enable-background:new 0 0 40 40" xml:space="preserve">
  <g id="XMLID_2747_">
    <g id="XMLID_2748_">
      <path fill="#f2a113" id="XMLID_2749_" d="M39.1 18.1c.8-.8 1.1-1.9.7-2.9-.3-1-1.2-1.8-2.3-1.9l-9.7-1.4c-.4-.1-.8-.3-1-.7l-4.3-8.8C22 1.4 21 .8 19.9.8s-2.1.6-2.6 1.6L13 11.2c-.2.4-.5.6-1 .7l-9.7 1.4c-1.1.2-2 .9-2.3 1.9s-.1 2.2.7 2.9l7 6.8c.3.3.4.7.4 1.1l-1.7 9.6c-.1.8.1 1.7.6 2.3.9 1 2.3 1.3 3.5.7l8.6-4.5c.4-.2.8-.2 1.2 0l8.7 4.5c.4.2.9.3 1.3.3.8 0 1.6-.4 2.2-1 .5-.6.8-1.5.6-2.3L31.7 26c-.1-.4.1-.8.4-1.1l7-6.8z"/>
    </g>
  </g>
</svg>
